<svg width="64" height="73" viewBox="0 0 64 73" fill="none" xmlns="http://www.w3.org/2000/svg">
<path d="M20.84 16H37.94C42.38 16 46.3 16.9 49.7 18.7C53.1 20.46 55.74 22.94 57.62 26.14C59.5 29.3 60.44 32.92 60.44 37C60.44 41.08 59.5 44.72 57.62 47.92C55.74 51.08 53.1 53.56 49.7 55.36C46.3 57.12 42.38 58 37.94 58H20.84V16ZM37.7 54.16C41.38 54.16 44.6 53.44 47.36 52C50.12 50.52 52.26 48.5 53.78 45.94C55.3 43.34 56.06 40.36 56.06 37C56.06 33.64 55.3 30.68 53.78 28.12C52.26 25.52 50.12 23.5 47.36 22.06C44.6 20.58 41.38 19.84 37.7 19.84H25.28V54.16H37.7Z" fill='#1F1E1E'/>
<path d="M12.34 58.36C9.94 58.36 7.72 57.84 5.68 56.8C3.64 55.76 1.98 54.28 0.7 52.36L3.34 49.36C5.66 52.8 8.68 54.52 12.4 54.52C17.6 54.52 20.2 51.44 20.2 45.28V19.84H4.84V16H24.58V45.1C24.58 49.5 23.54 52.82 21.46 55.06C19.42 57.26 16.38 58.36 12.34 58.36Z" fill="#1F1E1E"/>
</svg>
